<svg aria-hidden="true" style="width:0;height:0;position:absolute;overflow:hidden" xmlns="http://www.w3.org/2000/svg"><defs><symbol id="icon-facebook" viewBox="0 0 32 32"><path d="M31.5 16.343c0-8.563-6.938-15.5-15.5-15.5S.5 7.781.5 16.343c0 7.75 5.625 14.188 13.063 15.312V20.843H9.625v-4.5h3.938v-3.375c0-3.875 2.313-6.063 5.812-6.063 1.75 0 3.5.313 3.5.313v3.813h-1.937c-1.938 0-2.562 1.187-2.562 2.438v2.875h4.313l-.688 4.5h-3.625v10.812c7.437-1.125 13.125-7.562 13.125-15.312z"/></symbol><symbol id="icon-linkedin" viewBox="0 0 32 32"><path d="M7.25 32V10.901H.687V32H7.25zM3.933 8.079c2.117 0 3.81-1.764 3.81-3.881 0-2.046-1.694-3.74-3.81-3.74-2.046 0-3.74 1.694-3.74 3.74 0 2.117 1.694 3.881 3.74 3.881zM31.736 32h.071V20.427c0-5.645-1.27-10.02-7.903-10.02-3.175 0-5.292 1.764-6.21 3.387h-.07v-2.893h-6.28V32h6.562V21.556c0-2.752.494-5.363 3.881-5.363s3.458 3.105 3.458 5.575V32h6.492z"/></symbol><symbol id="icon-twitter" viewBox="0 0 37 32"><path d="M33.469 8.283c1.458-1.094 2.771-2.406 3.792-3.938a14.363 14.363 0 0 1-4.375 1.167c1.604-.948 2.771-2.406 3.354-4.229a16.177 16.177 0 0 1-4.812 1.896A7.657 7.657 0 0 0 25.813.773a7.655 7.655 0 0 0-7.656 7.656c0 .583.073 1.167.219 1.75A22.215 22.215 0 0 1 2.553 2.158c-.656 1.094-1.021 2.406-1.021 3.865a7.536 7.536 0 0 0 3.427 6.344c-1.24-.073-2.479-.365-3.5-.948v.073c0 3.719 2.625 6.781 6.125 7.511-.583.146-1.313.292-1.969.292-.51 0-.948-.073-1.458-.146.948 3.063 3.792 5.25 7.146 5.323-2.625 2.042-5.906 3.281-9.479 3.281-.656 0-1.24-.073-1.823-.146 3.354 2.187 7.365 3.427 11.74 3.427 14.073 0 21.729-11.594 21.729-21.729V8.284z"/></symbol><symbol id="icon-youtube" viewBox="0 0 45 32"><path d="M43.664 5.831c-.486-1.944-2.025-3.484-3.889-3.97C36.291.889 22.518.889 22.518.889s-13.854 0-17.338.972c-1.863.486-3.403 2.025-3.889 3.97C.319 9.234.319 16.526.319 16.526s0 7.211.972 10.694c.486 1.944 2.025 3.403 3.889 3.889C8.664 32 22.518 32 22.518 32s13.773 0 17.257-.891c1.863-.486 3.403-1.944 3.889-3.889.972-3.484.972-10.694.972-10.694s0-7.292-.972-10.694zM17.982 23.088V9.963l11.505 6.563-11.505 6.563z"/></symbol><symbol id="our-work-banking" viewBox="0 0 33 31"><path d="M32.906 6.75v1.094a.547.547 0 0 1-.547.547h-1.64v.82a.82.82 0 0 1-.82.82H3.101a.82.82 0 0 1-.82-.82v-.82H.64a.547.547 0 0 1-.547-.547V6.75a.547.547 0 0 1 .338-.505L16.29.229a.547.547 0 0 1 .418 0l15.86 6.016a.546.546 0 0 1 .337.505Zm-1.64 20.781H1.734a1.64 1.64 0 0 0-1.64 1.64v1.095a.547.547 0 0 0 .547.547h31.718a.547.547 0 0 0 .547-.547v-1.094a1.64 1.64 0 0 0-1.64-1.64ZM5.563 11.125V24.25H3.102a.82.82 0 0 0-.82.82v1.367h28.437V25.07a.82.82 0 0 0-.82-.82h-2.462V11.125h-4.375V24.25h-4.375V11.125h-4.375V24.25H9.939V11.125H5.561Z" fill="#fff"/></symbol><symbol id="our-work-manager" viewBox="0 0 35 35"><path d="M24.063 6.563a6.562 6.562 0 1 0-13.125 0 6.562 6.562 0 0 0 13.124 0Zm-8.095 9.918C11.912 14 5.343 13.316 2.038 13.128.925 13.065 0 13.912 0 14.98v15.23c0 .98.792 1.797 1.81 1.85 2.985.156 9.024.73 13.197 2.832.64.323 1.4-.117 1.4-.811V17.265a.91.91 0 0 0-.439-.784Zm16.995-3.353c-3.305.188-9.875.87-13.93 3.353a.927.927 0 0 0-.439.795v16.802c0 .697.762 1.137 1.404.814 4.173-2.1 10.208-2.674 13.192-2.83 1.018-.053 1.81-.87 1.81-1.85V14.98c0-1.068-.926-1.915-2.037-1.852Z" fill="#fff"/></symbol><symbol id="our-work-tax" viewBox="0 0 35 35"><path d="m34.036 9.714-3.151 3.151a.821.821 0 0 1-1.162 0l-7.588-7.588a.821.821 0 0 1 0-1.162L25.286.964a3.288 3.288 0 0 1 4.642 0l4.108 4.108a3.276 3.276 0 0 1 0 4.642ZM19.428 6.822 1.477 24.773.027 33.08a1.642 1.642 0 0 0 1.9 1.9l8.306-1.456 17.951-17.95a.821.821 0 0 0 0-1.163l-7.587-7.588a.83.83 0 0 0-1.17 0ZM8.483 23.235a.953.953 0 0 1 0-1.353l10.528-10.528a.953.953 0 0 1 1.353 0 .953.953 0 0 1 0 1.354L9.837 23.235a.953.953 0 0 1-1.354 0Zm-2.467 5.75h3.28v2.48l-4.408.773-2.126-2.126.772-4.409h2.482v3.281Z" fill="#fff"/></symbol></defs></svg>